<?xml version="1.0" encoding="UTF-8" standalone="no"?><svg width="65" height="65" viewBox="0 0 65 65" xmlns="http://www.w3.org/2000/svg" xmlns:xlink="http://www.w3.org/1999/xlink"><svg width="65" height="65" viewBox="0 0 65 65" id="doughnut"><title>doughnut</title><g fill="none" fill-rule="evenodd"><path d="M32.48.076C14.622.076.102 14.625.102 32.519c0 17.895 14.52 32.444 32.38 32.444 17.86 0 32.38-14.549 32.38-32.444C64.91 14.625 50.39.076 32.48.076zm0 44.61c-6.728 0-12.142-5.424-12.142-12.167 0-6.742 5.414-12.166 12.143-12.166 6.728 0 12.142 5.424 12.142 12.166.05 6.743-5.413 12.167-12.142 12.167z" fill="#E89C25"/><path d="M35.567 62.935c-18.416 0-33.34-14.954-33.34-33.406 0-5.729 1.416-11.102 3.945-15.766C2.378 19.035.152 25.523.152 32.52c0 17.895 14.52 32.444 32.38 32.444 7.032 0 13.508-2.23 18.77-6.032-4.706 2.534-10.069 4.004-15.735 4.004z" fill="#CC8921"/><path d="M32.48 17.818c-8.094 0-14.671 6.59-14.671 14.701S24.386 47.22 32.48 47.22c8.094 0 14.671-6.59 14.671-14.7 0-8.111-6.526-14.702-14.671-14.702zm0 26.868c-6.728 0-12.142-5.424-12.142-12.167 0-6.742 5.414-12.166 12.143-12.166 6.728 0 12.142 5.424 12.142 12.166.05 6.743-5.413 12.167-12.142 12.167z" fill="#D69022"/><path d="M64.658 36.524c.151-1.318.253-2.636.253-3.954 0-5.221-1.215-10.138-3.44-14.498C56.157 7.426 45.178.127 32.53.127 14.671.127.151 14.675.151 32.57l.051 1.977c1.366-.05 2.783-.152 4.099-.405 9.106-1.673 9.966-4.31 17.1-6.438a12.18 12.18 0 0 1 11.13-7.25c6.73 0 12.143 5.425 12.143 12.167v.304c5.565 3.143 18.01 3.549 19.984 3.6z" fill="#F8BEB6"/><path d="M13.559 19.39l-3.896 1.065c-.708.202-1.113 1.013-.91 1.824.202.812.96 1.318 1.67 1.116l3.895-1.065c.708-.203 1.113-1.014.91-1.825-.202-.81-.96-1.318-1.67-1.115zm42.194 5.12c0-.912-.657-1.622-1.517-1.622-.86 0-1.518.71-1.518 1.622v3.853c0 .912.658 1.622 1.518 1.622s1.517-.71 1.517-1.622V24.51z" fill="#26A6D1"/><path d="M23.728 8.39c-.658-.406-1.467-.203-1.821.456l-1.872 3.7c-.354.66-.101 1.572.556 1.978.658.405 1.468.202 1.822-.457l1.872-3.7a1.618 1.618 0 0 0-.557-1.977z" fill="#53BCA9"/><path d="M45.837 15.639l3.694-2.13c.657-.405 1.568-.152 1.973.558.404.71.151 1.572-.506 1.977l-3.694 2.13c-.657.405-1.568.151-1.973-.558-.405-.71-.152-1.623.506-1.977z" fill="#E2574C"/><path d="M37.085 11.583l-3.44-2.18c-.608-.405-.86-1.267-.507-1.977.354-.71 1.164-.912 1.822-.506L38.4 9.1c.607.405.86 1.267.506 1.976-.354.66-1.164.862-1.821.507z" fill="#FFF"/><path d="M47.102 33.939c.05-.456.05-.912.05-1.42 0-8.11-6.576-14.7-14.671-14.7-6.78 0-12.497 4.613-14.166 10.899.91-.355 1.872-.71 3.035-1.065a12.18 12.18 0 0 1 11.13-7.249c6.73 0 12.143 5.424 12.143 12.166v.304c.759.355 1.568.76 2.479 1.065zm-46.9.558l2.328-.153c-.253-1.571-.355-3.193-.355-4.866 0-5.728 1.417-11.102 3.947-15.766C5.21 15.03 4.35 16.4 3.642 17.82l-.05.152-.455.963-.102.203c-.455.963-.86 1.977-1.214 2.99l-.152.457-.252.76c-.051.203-.102.406-.203.66l-.202.709-.202.811c-.051.203-.102.406-.152.558L.405 27.45c-.05.152-.05.355-.05.507-.051.355-.102.66-.102 1.014l-.05.558c-.051.355-.051.71-.102 1.014 0 .152 0 .304-.05.506L0 32.57c0 .457 0 .862.05 1.318.102.152.152.406.152.609z" fill="#DAA7A0"/></g></svg></svg>