<?xml version="1.0" encoding="UTF-8" standalone="no"?>
<svg width="65px" height="65px" viewBox="0 0 65 65" version="1.1" xmlns="http://www.w3.org/2000/svg" xmlns:xlink="http://www.w3.org/1999/xlink">
    <!-- Generator: Sketch 41 (35326) - http://www.bohemiancoding.com/sketch -->
    <title>doughnut</title>
    <desc>Created with Sketch.</desc>
    <defs></defs>
    <g id="Page-1" stroke="none" stroke-width="1" fill="none" fill-rule="evenodd">
        <g id="doughnut">
            <path d="M32.4806028,0.0759405941 C14.6214032,0.0759405941 0.101225296,14.6248713 0.101225296,32.5194356 C0.101225296,50.414 14.6214032,64.9631881 32.4807312,64.9631881 C50.3400593,64.9631881 64.8601087,50.4142574 64.8601087,32.5194356 C64.9107213,14.6248713 50.3905435,0.0759405941 32.4806028,0.0759405941 Z M32.4806028,44.6857624 C25.7516897,44.6857624 20.3383202,39.2615446 20.3383202,32.5194356 C20.3383202,25.7773267 25.7518182,20.3531089 32.4806028,20.3531089 C39.2093874,20.3531089 44.6228854,25.7773267 44.6228854,32.5194356 C44.673498,39.261802 39.2095158,44.6857624 32.4806028,44.6857624 Z" id="Shape" fill="#E89C25"></path>
            <path d="M35.5668182,62.9354455 C17.1510079,62.9354455 2.22605731,47.9809406 2.22605731,29.5286634 C2.22605731,23.800297 3.64269763,18.4269208 6.17230237,13.7631386 C2.37789526,19.0350891 0.151709486,25.5237624 0.151709486,32.5194356 C0.151709486,50.4141287 14.6718874,64.9630594 32.5312154,64.9630594 C39.5636759,64.9630594 46.0395257,62.7325941 51.3011858,58.9305446 C46.5960079,61.4652871 41.233251,62.9354455 35.5668182,62.9354455 Z" id="Shape" fill="#CC8921"></path>
            <path d="M32.4806028,17.818495 C24.3857905,17.818495 17.8087154,24.4085941 17.8087154,32.5194356 C17.8087154,40.6302772 24.3857905,47.2203762 32.4806028,47.2203762 C40.575415,47.2203762 47.1524901,40.6302772 47.1524901,32.5194356 C47.1524901,24.4085941 40.6260277,17.818495 32.4806028,17.818495 Z M32.4806028,44.6857624 C25.7516897,44.6857624 20.3383202,39.2615446 20.3383202,32.5194356 C20.3383202,25.7773267 25.7518182,20.3531089 32.4806028,20.3531089 C39.2093874,20.3531089 44.6228854,25.7773267 44.6228854,32.5194356 C44.673498,39.261802 39.2095158,44.6857624 32.4806028,44.6857624 Z" id="Shape" fill="#D69022"></path>
            <path d="M64.6576581,36.5243366 C64.809496,35.2063168 64.9105929,33.888297 64.9105929,32.5702772 C64.9105929,27.3489109 63.6964032,22.4316931 61.4702174,18.0720594 C56.1580731,7.42634653 45.179496,0.126653465 32.5312154,0.126653465 C14.6718874,0.126653465 0.151837945,14.6754554 0.151837945,32.5702772 L0.202450593,34.5473069 C1.56847826,34.4965941 2.98511858,34.3951683 4.3005336,34.1417327 C13.4072134,32.4688515 14.2673715,29.8328119 21.4009289,27.7037723 C23.2728261,23.4455644 27.5732312,20.4546634 32.5313439,20.4546634 C39.2602569,20.4546634 44.6736265,25.8788812 44.6736265,32.6209901 L44.6736265,32.9251386 C50.2387055,36.0680495 62.6845356,36.4736238 64.6576581,36.5243366 Z" id="Shape" fill="#F8BEB6"></path>
            <path d="M13.5589229,19.3899505 L9.66329051,20.4545347 C8.95497036,20.6572574 8.55019763,21.4684059 8.75264822,22.2794257 C8.95497036,23.0905743 9.71390316,23.5974455 10.4222233,23.3947228 L14.3178557,22.3301386 C15.0261759,22.1274158 15.4309486,21.3162673 15.228498,20.5052475 C15.0260474,19.694099 14.2672431,19.1872277 13.5589229,19.3899505 Z M55.7533004,24.5100198 C55.7533004,23.5975743 55.0955929,22.8878515 54.2355632,22.8878515 C53.3755336,22.8878515 52.7178261,23.5975743 52.7178261,24.5100198 L52.7178261,28.3626535 C52.7178261,29.275099 53.3755336,29.9848218 54.2355632,29.9848218 C55.0955929,29.9848218 55.7533004,29.275099 55.7533004,28.3626535 L55.7533004,24.5100198 Z" id="Shape" fill="#26A6D1"></path>
            <path d="M23.728083,8.38963366 C23.0703755,7.98405941 22.26083,8.18691089 21.9067984,8.84592079 L20.0349012,12.5465446 C19.6807411,13.2055545 19.9336759,14.118 20.5913834,14.5235743 C21.2490909,14.9291485 22.0586364,14.726297 22.412668,14.0672871 L24.2845652,10.3666634 C24.5881126,9.70765347 24.3857905,8.84579208 23.728083,8.38963366 Z" id="Shape" fill="#53BCA9"></path>
            <path d="M45.8372036,15.6387426 L49.5305138,13.5095743 C50.1882213,13.104 51.0988636,13.3574356 51.5036364,14.0671584 C51.9084091,14.7768812 51.6554743,15.6386139 50.9977668,16.0441881 L47.3044565,18.1733564 C46.646749,18.5789307 45.7361067,18.325495 45.331334,17.6157723 C44.9264328,16.9061782 45.179496,15.9934752 45.8372036,15.6387426 Z" id="Shape" fill="#E2574C"></path>
            <path d="M37.0845553,11.5832574 L33.6441798,9.40350495 C33.037085,8.99793069 32.7841502,8.13619802 33.1383103,7.42647525 C33.4924704,6.71675248 34.3018874,6.5140297 34.9595949,6.91960396 L38.3999704,9.09935644 C39.0070652,9.50493069 39.26,10.3666634 38.9058399,11.0763861 C38.5518083,11.7352673 37.7422628,11.9381188 37.0845553,11.5832574 Z" id="Shape" fill="#FFFFFF"></path>
            <path d="M47.1020059,33.9390099 C47.1526186,33.4827228 47.1526186,33.0265644 47.1526186,32.5195644 C47.1526186,24.4087228 40.5755435,17.8186238 32.4807312,17.8186238 C25.701334,17.8186238 19.9842885,22.4316931 18.3147134,28.7176436 C19.2253557,28.3627822 20.1866107,28.0079208 21.3503162,27.6530594 C23.2222134,23.3948515 27.5226186,20.4039505 32.4807312,20.4039505 C39.2096443,20.4039505 44.6230138,25.8281683 44.6230138,32.5702772 L44.6230138,32.8744257 C45.3818182,33.2291584 46.1913636,33.6347327 47.1020059,33.9390099 Z M0.202322134,34.4965941 L2.52960474,34.3444554 C2.27666996,32.773 2.17544466,31.1508317 2.17544466,29.4779505 C2.17544466,23.7495842 3.59208498,18.3762079 6.12168972,13.7124257 C5.21104743,15.0304455 4.35088933,16.3991782 3.64269763,17.8186238 L3.59208498,17.9707624 L3.1366996,18.9339208 L3.03547431,19.1366436 C2.58008893,20.099802 2.17544466,21.1136733 1.82128458,22.1275446 L1.66944664,22.5838317 L1.41651186,23.3442673 C1.36589921,23.5469901 1.31528656,23.7498416 1.21418972,24.0032772 L1.01186759,24.7128713 L0.809545455,25.5240198 C0.758932806,25.7267426 0.708320158,25.9295941 0.65770751,26.081604 L0.404772727,27.4503366 C0.354160079,27.6024752 0.354160079,27.805198 0.354160079,27.9572079 C0.303547431,28.3120693 0.252934783,28.6162178 0.252934783,28.9710792 L0.202322134,29.5286634 C0.151709486,29.8835248 0.151709486,30.2383861 0.101096838,30.5425347 C0.101096838,30.6946733 0.101096838,30.8466832 0.0504841897,31.0494059 L0,32.5702772 C0,33.0265644 0,33.4320099 0.0506126482,33.888297 C0.151837945,34.0403069 0.202322134,34.2938713 0.202322134,34.4965941 Z" id="Shape" fill="#DAA7A0"></path>
        </g>
    </g>
</svg>